<svg width="14" height="20" viewBox="0 0 14 20" fill="none" xmlns="http://www.w3.org/2000/svg">
<path id="Vector" fill-rule="evenodd" clip-rule="evenodd" d="M1 0C0.734784 0 0.48043 0.105357 0.292893 0.292893C0.105357 0.48043 0 0.734784 0 1C0 1.26522 0.105357 1.51957 0.292893 1.70711C0.48043 1.89464 0.734784 2 1 2H2V15C2 16.3261 2.52678 17.5979 3.46447 18.5355C4.40215 19.4732 5.67392 20 7 20C8.32608 20 9.59785 19.4732 10.5355 18.5355C11.4732 17.5979 12 16.3261 12 15V2H13C13.2652 2 13.5196 1.89464 13.7071 1.70711C13.8946 1.51957 14 1.26522 14 1C14 0.734784 13.8946 0.48043 13.7071 0.292893C13.5196 0.105357 13.2652 0 13 0H1ZM4 5V2H10V5H4ZM8.708 10.708C8.52047 10.8955 8.26616 11.0008 8.001 11.0008C7.73584 11.0008 7.48153 10.8955 7.294 10.708C7.10636 10.5205 6.99989 10.2661 6.9998 10.0009C6.9997 9.73558 7.10499 9.48114 7.2925 9.2935C7.48001 9.10586 7.73438 9.00039 7.99965 9.0003C8.26492 9.0002 8.51936 9.10549 8.707 9.293C8.79998 9.38587 8.87374 9.49616 8.92406 9.61756C8.97438 9.73896 9.00029 9.86908 9.00029 10.0005C9.00029 10.1319 8.97438 10.262 8.92406 10.3834C8.87374 10.5048 8.79998 10.6151 8.707 10.708H8.708ZM5.294 14.708C5.38625 14.8035 5.49659 14.8797 5.6186 14.9321C5.7406 14.9845 5.87182 15.0121 6.0046 15.0133C6.13738 15.0144 6.26906 14.9891 6.39195 14.9388C6.51485 14.8885 6.6265 14.8143 6.7204 14.7204C6.81429 14.6265 6.88854 14.5149 6.93882 14.392C6.9891 14.2691 7.0144 14.1374 7.01325 14.0046C7.0121 13.8718 6.98451 13.7406 6.9321 13.6186C6.87969 13.4966 6.80351 13.3862 6.708 13.294C6.52049 13.1064 6.26612 12.9999 6.00085 12.9998C5.73558 12.9997 5.48114 13.105 5.2935 13.2925C5.10586 13.48 5.00039 13.7344 5.0003 13.9996C5.0002 14.2649 5.10549 14.5194 5.293 14.707L5.294 14.708Z" fill="#222D5B"/>
</svg>
