<svg width="21" height="21" viewBox="0 0 21 21" fill="none" xmlns="http://www.w3.org/2000/svg">
<path id="Vector" d="M15.7502 1.40699C17.3339 2.32138 18.6513 3.63353 19.572 5.21354C20.4928 6.79354 20.9849 8.58661 20.9997 10.4152C21.0144 12.2439 20.5513 14.0447 19.6563 15.6393C18.7612 17.234 17.4651 18.5673 15.8964 19.5071C14.3277 20.447 12.5407 20.9608 10.7123 20.9979C8.88398 21.0349 7.07766 20.5937 5.4722 19.7181C3.86673 18.8425 2.5178 17.5628 1.55892 16.0056C0.600043 14.4485 0.0644806 12.6679 0.00525018 10.8401L0 10.4999L0.00525018 10.1597C0.0759353 7.97491 0.82677 5.86662 2.15303 4.12893C3.47929 2.39123 5.31483 1.11079 7.40364 0.466197C7.31779 0.921387 7.33339 1.38991 7.44933 1.83838C7.56526 2.28685 7.77868 2.70423 8.07438 3.06079C8.37008 3.41735 8.74078 3.7043 9.16007 3.90121C9.57935 4.09811 10.0369 4.20013 10.5001 4.19998C10.7786 4.19998 11.0457 4.08935 11.2426 3.89244C11.4395 3.69553 11.5501 3.42846 11.5501 3.14998C11.5501 2.87151 11.4395 2.60444 11.2426 2.40752C11.0457 2.21061 10.7786 2.09999 10.5001 2.09999L10.3773 2.09264C10.1115 2.06103 9.86787 1.92914 9.6961 1.72391C9.52433 1.51869 9.4374 1.25562 9.45309 0.988459C9.46877 0.721297 9.58588 0.470206 9.78048 0.286489C9.97509 0.102773 10.2325 0.000296841 10.5001 0C12.3125 0 14.1258 0.469347 15.7502 1.40699ZM13.8602 12.9002C13.6613 12.7053 13.3932 12.5974 13.1148 12.6001C12.8363 12.6029 12.5704 12.7161 12.3755 12.9149C12.131 13.1645 11.8393 13.3627 11.5172 13.4981C11.1952 13.6334 10.8494 13.7031 10.5001 13.7031C10.1508 13.7031 9.80503 13.6334 9.48301 13.4981C9.161 13.3627 8.86923 13.1645 8.62481 12.9149C8.42887 12.7207 8.16438 12.6114 7.88849 12.6106C7.61261 12.6099 7.34751 12.7177 7.15051 12.9109C6.95351 13.104 6.84044 13.3669 6.83574 13.6427C6.83103 13.9186 6.93508 14.1852 7.12539 14.3849C7.56532 14.8338 8.0904 15.1905 8.66988 15.4339C9.24935 15.6774 9.87158 15.8028 10.5001 15.8028C11.1287 15.8028 11.7509 15.6774 12.3304 15.4339C12.9099 15.1905 13.4349 14.8338 13.8749 14.3849C14.0698 14.1861 14.1777 13.918 14.175 13.6395C14.1722 13.3611 14.059 13.0952 13.8602 12.9002ZM7.36059 7.34996L7.22724 7.35731C6.96149 7.38892 6.71783 7.52081 6.54606 7.72603C6.37429 7.93126 6.28736 8.19433 6.30305 8.46149C6.31873 8.72865 6.43584 8.97974 6.63045 9.16346C6.82505 9.34717 7.08246 9.44965 7.35009 9.44995L7.48344 9.4426C7.7492 9.41099 7.99285 9.2791 8.16462 9.07387C8.33639 8.86865 8.42332 8.60558 8.40763 8.33842C8.39195 8.07126 8.27484 7.82016 8.08024 7.63645C7.88563 7.45273 7.62822 7.35026 7.36059 7.34996ZM13.6607 7.34996L13.5273 7.35731C13.2616 7.38892 13.0179 7.52081 12.8461 7.72603C12.6744 7.93126 12.5874 8.19433 12.6031 8.46149C12.6188 8.72865 12.7359 8.97974 12.9305 9.16346C13.1251 9.34717 13.3825 9.44965 13.6502 9.44995L13.7835 9.4426C14.0493 9.41099 14.2929 9.2791 14.4647 9.07387C14.6365 8.86865 14.7234 8.60558 14.7077 8.33842C14.692 8.07126 14.5749 7.82016 14.3803 7.63645C14.1857 7.45273 13.9283 7.35026 13.6607 7.34996Z" fill="#222D5B"/>
</svg>
