<svg width="27" height="27" viewBox="0 0 27 27" fill="none" xmlns="http://www.w3.org/2000/svg">
<g clip-path="url(#clip0_156_1610)">
<path d="M22.9517 3.92522C21.7141 2.67562 20.24 1.68497 18.6155 1.01106C16.991 0.337158 15.2486 -0.00651514 13.4899 9.35298e-05C6.12056 9.35298e-05 0.11475 6.00422 0.108 13.3752C0.108 15.736 0.725625 18.0327 1.89169 20.0662L0 27.0001L7.09425 25.1405C9.05595 26.2107 11.2552 26.7707 13.4899 26.7689H13.4966C20.8676 26.7689 26.8718 20.7648 26.8785 13.387C26.88 11.6288 26.5337 9.88755 25.8594 8.26368C25.1852 6.63981 24.1981 5.16536 22.9517 3.92522ZM13.4899 24.5043C11.4972 24.5027 9.5415 23.9666 7.82663 22.9518L7.42163 22.7088L3.213 23.8124L4.33688 19.7067L4.07363 19.2832C2.95955 17.5118 2.37034 15.461 2.37431 13.3685C2.37431 7.24959 7.36425 2.25797 13.4966 2.25797C14.9576 2.25535 16.4046 2.54193 17.7542 3.1012C19.1039 3.66046 20.3295 4.48135 21.3604 5.51653C22.3946 6.54784 23.2146 7.77364 23.773 9.12327C24.3314 10.4729 24.6172 11.9197 24.6139 13.3803C24.6071 19.5211 19.6172 24.5043 13.4899 24.5043ZM19.5902 16.1782C19.2578 16.0111 17.6158 15.2028 17.307 15.088C16.9999 14.9783 16.7754 14.921 16.5561 15.2551C16.3316 15.5875 15.6904 16.3452 15.498 16.5629C15.3056 16.7873 15.1065 16.8127 14.7724 16.6473C14.4399 16.4785 13.3616 16.1275 12.0859 14.9851C11.0903 14.0992 10.4237 13.0023 10.2246 12.6698C10.0322 12.3357 10.206 12.1568 10.3731 11.9898C10.5199 11.8413 10.7055 11.5983 10.8726 11.4059C11.0413 11.2135 11.097 11.0718 11.2067 10.849C11.3164 10.6229 11.2641 10.4305 11.1814 10.2635C11.097 10.0964 10.4304 8.44772 10.1486 7.78284C9.87863 7.12641 9.60356 7.21753 9.39769 7.20909C9.20531 7.19728 8.98088 7.19728 8.75644 7.19728C8.58697 7.20159 8.42022 7.24084 8.26661 7.31256C8.11301 7.38428 7.97586 7.48693 7.86375 7.61409C7.55663 7.94822 6.69769 8.75653 6.69769 10.4052C6.69769 12.0539 7.89581 13.6385 8.06456 13.8629C8.22994 14.0873 10.4169 17.4607 13.7734 18.9119C14.5665 19.2578 15.1909 19.462 15.6786 19.6173C16.4801 19.8738 17.2041 19.835 17.7812 19.7523C18.4224 19.6544 19.7573 18.9423 20.0391 18.161C20.3158 17.378 20.3158 16.7097 20.2314 16.5697C20.1488 16.4279 19.9243 16.3452 19.5902 16.1782Z" fill="#222D5B"/>
</g>
<defs>
<clipPath id="clip0_156_1610">
<rect width="27" height="27" fill="white"/>
</clipPath>
</defs>
</svg>
