<svg width="62" height="62" viewBox="0 0 62 62" fill="none" xmlns="http://www.w3.org/2000/svg">
<g id="hugeicons:doctor-01">
<g id="Group">
<path id="Vector" d="M51.6663 56.8333V49.0833C51.6663 41.7776 51.6663 38.1222 49.3956 35.854C47.1274 33.5833 43.472 33.5833 36.1663 33.5833L30.9997 38.7499L25.833 33.5833C18.5273 33.5833 14.8719 33.5833 12.6038 35.854C10.333 38.1222 10.333 41.7776 10.333 49.0833V56.8333M41.333 33.5833V47.7916" stroke="#222D5B" stroke-width="3" stroke-linecap="round" stroke-linejoin="round"/>
<path id="Vector_2" d="M21.9577 33.5833V43.9166M21.9577 43.9166C23.328 43.9166 24.6421 44.461 25.6111 45.4299C26.58 46.3988 27.1243 47.713 27.1243 49.0833V51.6666M21.9577 43.9166C20.5874 43.9166 19.2732 44.461 18.3043 45.4299C17.3354 46.3988 16.791 47.713 16.791 49.0833V51.6666M40.041 16.7916V14.2083C40.041 13.0209 39.8071 11.8452 39.3528 10.7482C38.8984 9.65121 38.2324 8.65447 37.3928 7.81487C36.5532 6.97527 35.5564 6.30927 34.4594 5.85488C33.3625 5.4005 32.1867 5.16663 30.9993 5.16663C29.812 5.16663 28.6362 5.4005 27.5393 5.85488C26.4423 6.30927 25.4455 6.97527 24.6059 7.81487C23.7663 8.65447 23.1003 9.65121 22.6459 10.7482C22.1916 11.8452 21.9577 13.0209 21.9577 14.2083V16.7916C21.9577 17.979 22.1916 19.1547 22.6459 20.2517C23.1003 21.3487 23.7663 22.3455 24.6059 23.185C25.4455 24.0246 26.4423 24.6907 27.5393 25.145C28.6362 25.5994 29.812 25.8333 30.9993 25.8333C32.1867 25.8333 33.3625 25.5994 34.4594 25.145C35.5564 24.6907 36.5532 24.0246 37.3928 23.185C38.2324 22.3455 38.8984 21.3487 39.3528 20.2517C39.8071 19.1547 40.041 17.979 40.041 16.7916ZM43.2702 49.7291C43.2702 50.243 43.0661 50.7358 42.7027 51.0991C42.3394 51.4625 41.8465 51.6666 41.3327 51.6666C40.8188 51.6666 40.326 51.4625 39.9627 51.0991C39.5993 50.7358 39.3952 50.243 39.3952 49.7291C39.3952 49.2153 39.5993 48.7225 39.9627 48.3591C40.326 47.9958 40.8188 47.7916 41.3327 47.7916C41.8465 47.7916 42.3394 47.9958 42.7027 48.3591C43.0661 48.7225 43.2702 49.2153 43.2702 49.7291Z" stroke="#222D5B" stroke-width="3" stroke-linecap="round" stroke-linejoin="round"/>
</g>
</g>
</svg>
