<svg width="442" height="415" viewBox="0 0 442 415" fill="none" xmlns="http://www.w3.org/2000/svg">
<g opacity="0.7">
<path d="M375.898 3.60693H298.156V95.7605H375.898V3.60693Z" fill="#E1E1E1"/>
<path d="M375.898 95.7603H378.42V3.60672H375.898V95.7603Z" fill="#E1E1E1"/>
<path opacity="0.05" d="M375.898 95.7603H378.42V3.60672H375.898V95.7603Z" fill="#292A2E"/>
<path opacity="0.05" d="M361.736 22.04H312.318V77.3277H361.736V22.04Z" fill="#292A2E"/>
<path opacity="0.03" d="M361.736 22.04H359.161V77.3277H361.736V22.04Z" fill="#292A2E"/>
<path d="M439.478 120.645H375.898V184.808H439.478V120.645Z" fill="#E1E1E1"/>
<path opacity="0.05" d="M427.896 132.333H387.48V173.12H427.896V132.333Z" fill="#292A2E"/>
<path d="M439.478 184.809H442V120.645H439.478V184.809Z" fill="#E1E1E1"/>
<path opacity="0.05" d="M439.478 184.809H442V120.645H439.478V184.809Z" fill="#292A2E"/>
<path opacity="0.03" d="M427.896 132.333H425.32V173.12H427.896V132.333Z" fill="#292A2E"/>
</g>
<g opacity="0.7">
<path d="M216.72 0H33.6943V183.026H216.72V0Z" fill="#E7E7E7"/>
<path d="M33.6943 0H31.5965V183.026H33.6943V0Z" fill="#E7E7E7"/>
<path opacity="0.05" d="M33.6943 0H31.5965V183.026H33.6943V0Z" fill="#292A2E"/>
<path opacity="0.05" d="M78.0333 126.12V78.2344H117.259V106.055H178.019V155.315H203.843V183.026H178.019H173.044H42.4986V126.12H78.0333Z" fill="#292A2E"/>
<path opacity="0.34" d="M112.224 83.4341H83.6595V88.6332H112.224V83.4341Z" fill="#F2EEE3"/>
<path opacity="0.34" d="M112.224 94.2085H83.6595V99.4077H112.224V94.2085Z" fill="#F2EEE3"/>
<path opacity="0.34" d="M112.224 104.982H83.6595V110.181H112.224V104.982Z" fill="#F2EEE3"/>
<path opacity="0.34" d="M52.8287 131.167H47.564V136.366H52.8287V131.167Z" fill="#F2EEE3"/>
<path opacity="0.34" d="M52.8287 141.941H47.564V147.14H52.8287V141.941Z" fill="#F2EEE3"/>
<path opacity="0.34" d="M52.8287 152.715H47.564V157.914H52.8287V152.715Z" fill="#F2EEE3"/>
<path opacity="0.34" d="M62.5687 131.167H57.304V136.366H62.5687V131.167Z" fill="#F2EEE3"/>
<path opacity="0.34" d="M62.5687 141.941H57.304V147.14H62.5687V141.941Z" fill="#F2EEE3"/>
<path opacity="0.34" d="M62.5687 152.715H57.304V157.914H62.5687V152.715Z" fill="#F2EEE3"/>
<path opacity="0.34" d="M72.0453 131.167H66.7806V136.366H72.0453V131.167Z" fill="#F2EEE3"/>
<path opacity="0.34" d="M72.0453 141.941H66.7806V147.14H72.0453V141.941Z" fill="#F2EEE3"/>
<path opacity="0.34" d="M72.0453 152.715H66.7806V157.914H72.0453V152.715Z" fill="#F2EEE3"/>
<path d="M33.6943 90.4863H70.5222V0H73.568V90.4863H173.044V0H176.09V90.4863H216.72V93.5321H176.09V183.026H173.044V93.5321H73.568V183.026H70.5222V93.5321H33.6943V90.4863Z" fill="#CCCCCC"/>
<path d="M224.012 182.805H26.4032V188.892H224.012V182.805Z" fill="#E7E7E7"/>
<path opacity="0.1" d="M224.012 182.805H26.4032V188.892H224.012V182.805Z" fill="#292A2E"/>
<path opacity="0.1" d="M26.4032 182.805H23.5504V188.892H26.4032V182.805Z" fill="#292A2E"/>
<path opacity="0.1" d="M26.4032 182.805H23.5504V188.892H26.4032V182.805Z" fill="#292A2E"/>
</g>
<path d="M139.328 22.7271H353.556C356.642 22.7271 359.601 23.9529 361.783 26.135C363.965 28.3171 365.191 31.2766 365.191 34.3625V290.945C365.191 294.098 363.939 297.122 361.709 299.352C359.48 301.581 356.456 302.834 353.303 302.834H139.582C136.429 302.834 133.405 301.581 131.176 299.352C128.946 297.122 127.694 294.098 127.694 290.945V34.3611C127.694 31.2755 128.92 28.3164 131.102 26.1347C133.284 23.9529 136.243 22.7272 139.328 22.7271Z" fill="white"/>
<path d="M353.303 303.285H139.582C136.309 303.285 133.17 301.985 130.856 299.671C128.542 297.356 127.242 294.218 127.242 290.945V33.909C127.242 30.8233 128.468 27.8642 130.65 25.6824C132.832 23.5006 135.791 22.2749 138.877 22.2749H354.008C357.094 22.2749 360.053 23.5007 362.235 25.6827C364.417 27.8646 365.643 30.824 365.643 33.9099V290.945C365.643 294.218 364.343 297.356 362.029 299.671C359.715 301.985 356.576 303.285 353.303 303.285ZM128.145 34.3414V290.945C128.145 292.447 128.441 293.934 129.016 295.321C129.591 296.709 130.433 297.97 131.495 299.032C132.557 300.094 133.818 300.936 135.205 301.511C136.593 302.086 138.08 302.381 139.582 302.381H353.303C356.336 302.381 359.245 301.176 361.39 299.032C363.535 296.887 364.74 293.978 364.74 290.945V34.2284C364.739 32.7771 364.453 31.3401 363.898 29.9994C363.342 28.6587 362.528 27.4405 361.502 26.4144C360.475 25.3883 359.257 24.5745 357.916 24.0193C356.575 23.464 355.138 23.1784 353.687 23.1786H139.309C136.348 23.1786 133.509 24.3546 131.415 26.448C129.322 28.5414 128.146 31.3807 128.145 34.3414Z" fill="#46BCC6"/>
<path d="M173.764 78.4265H147.803C146.356 78.4249 144.969 77.8494 143.946 76.8265C142.923 75.8036 142.347 74.4166 142.345 72.9698V47.0079C142.347 45.561 142.923 44.1738 143.946 43.1506C144.969 42.1275 146.356 41.552 147.803 41.5503H173.764C175.211 41.5518 176.599 42.1273 177.622 43.1505C178.645 44.1736 179.221 45.5609 179.222 47.0079V72.9698C179.221 74.4167 178.645 75.8037 177.622 76.8267C176.598 77.8496 175.211 78.425 173.764 78.4265ZM147.803 42.453C146.596 42.4545 145.438 42.9347 144.584 43.7885C143.731 44.6422 143.25 45.7997 143.249 47.007V72.9698C143.25 74.1772 143.731 75.3347 144.584 76.1884C145.438 77.0421 146.596 77.5223 147.803 77.5238H173.764C174.972 77.5225 176.129 77.0423 176.983 76.1885C177.837 75.3348 178.317 74.1772 178.319 72.9698V47.0079C178.317 45.8005 177.837 44.6429 176.983 43.7892C176.129 42.9355 174.972 42.4553 173.764 42.4539L147.803 42.453Z" fill="#46BCC6"/>
<path d="M173.764 129.862H147.803C146.356 129.86 144.969 129.284 143.946 128.261C142.923 127.238 142.347 125.851 142.345 124.404V98.4424C142.347 96.9954 142.922 95.6081 143.946 94.5849C144.969 93.5616 146.356 92.986 147.803 92.9844H173.764C175.211 92.986 176.599 93.5616 177.622 94.5849C178.645 95.6081 179.221 96.9954 179.222 98.4424V124.404C179.221 125.851 178.645 127.238 177.622 128.261C176.599 129.284 175.211 129.86 173.764 129.862ZM147.803 93.8894C146.596 93.8908 145.438 94.3711 144.584 95.225C143.731 96.0788 143.25 97.2364 143.249 98.4438V124.405C143.25 125.613 143.731 126.77 144.584 127.624C145.438 128.478 146.596 128.958 147.803 128.959H173.764C174.972 128.958 176.129 128.478 176.983 127.624C177.837 126.77 178.317 125.613 178.319 124.405V98.4424C178.317 97.235 177.837 96.0774 176.983 95.2236C176.129 94.3698 174.972 93.8895 173.764 93.888L147.803 93.8894Z" fill="#46BCC6"/>
<path d="M173.764 181.296H147.803C146.356 181.294 144.969 180.719 143.946 179.696C142.923 178.673 142.347 177.285 142.345 175.839V149.877C142.347 148.43 142.923 147.043 143.946 146.02C144.969 144.997 146.356 144.421 147.803 144.419H173.764C175.211 144.421 176.599 144.996 177.622 146.02C178.645 147.043 179.221 148.43 179.222 149.877V175.839C179.221 177.286 178.645 178.673 177.622 179.696C176.599 180.719 175.211 181.295 173.764 181.296ZM147.803 145.323C146.596 145.324 145.438 145.805 144.584 146.658C143.731 147.512 143.25 148.67 143.249 149.877V175.839C143.25 177.046 143.731 178.203 144.584 179.057C145.438 179.911 146.596 180.391 147.803 180.392H173.764C174.972 180.391 176.129 179.911 176.983 179.057C177.837 178.203 178.317 177.046 178.319 175.839V149.877C178.317 148.67 177.837 147.512 176.983 146.658C176.129 145.805 174.972 145.324 173.764 145.323H147.803Z" fill="#46BCC6"/>
<path d="M173.764 232.025H147.803C146.356 232.023 144.969 231.448 143.946 230.425C142.923 229.402 142.347 228.014 142.345 226.567V200.606C142.347 199.159 142.922 197.772 143.946 196.748C144.969 195.725 146.356 195.15 147.803 195.148H173.764C175.211 195.15 176.599 195.725 177.622 196.748C178.645 197.772 179.221 199.159 179.222 200.606V226.567C179.221 228.014 178.645 229.402 177.622 230.425C176.599 231.448 175.211 232.024 173.764 232.025ZM147.803 196.052C146.595 196.053 145.438 196.533 144.584 197.387C143.73 198.241 143.25 199.399 143.249 200.606V226.567C143.25 227.775 143.731 228.932 144.584 229.786C145.438 230.64 146.596 231.12 147.803 231.121H173.764C174.972 231.12 176.129 230.64 176.983 229.786C177.837 228.932 178.317 227.775 178.319 226.567V200.606C178.318 199.399 177.837 198.241 176.983 197.387C176.13 196.533 174.972 196.053 173.764 196.052H147.803Z" fill="#46BCC6"/>
<path d="M173.764 282.753H147.803C146.356 282.751 144.969 282.175 143.946 281.152C142.922 280.129 142.347 278.742 142.345 277.295V251.334C142.347 249.887 142.922 248.499 143.946 247.476C144.969 246.453 146.356 245.877 147.803 245.875H173.764C175.211 245.877 176.599 246.453 177.622 247.476C178.645 248.499 179.221 249.887 179.222 251.334V277.295C179.221 278.742 178.645 280.129 177.622 281.152C176.599 282.175 175.211 282.751 173.764 282.753ZM147.803 246.779C146.596 246.78 145.438 247.26 144.584 248.114C143.731 248.968 143.25 250.126 143.249 251.333V277.295C143.25 278.502 143.731 279.66 144.584 280.513C145.438 281.367 146.596 281.848 147.803 281.849H173.764C174.972 281.848 176.129 281.367 176.983 280.513C177.837 279.66 178.317 278.502 178.319 277.295V251.334C178.317 250.126 177.837 248.968 176.983 248.115C176.129 247.261 174.972 246.781 173.764 246.779L147.803 246.779Z" fill="#46BCC6"/>
<path d="M156.166 121.81C155.699 121.81 155.25 121.629 154.913 121.305L147.346 114.031C147.175 113.866 147.038 113.67 146.943 113.452C146.848 113.235 146.796 113.001 146.792 112.763C146.787 112.526 146.829 112.29 146.915 112.069C147.002 111.848 147.131 111.646 147.296 111.475C147.46 111.304 147.657 111.167 147.874 111.072C148.091 110.977 148.326 110.925 148.563 110.921C148.8 110.916 149.036 110.958 149.257 111.044C149.478 111.131 149.68 111.26 149.851 111.425L156.135 117.466L171.886 101.571C172.225 101.236 172.682 101.048 173.158 101.048C173.634 101.049 174.091 101.237 174.429 101.572C174.767 101.907 174.96 102.362 174.964 102.838C174.969 103.314 174.786 103.773 174.454 104.114L157.449 121.273C157.282 121.443 157.082 121.578 156.862 121.67C156.641 121.762 156.405 121.81 156.166 121.81Z" fill="#46BCC6"/>
<path d="M156.166 173.245C155.699 173.245 155.25 173.064 154.913 172.74L147.346 165.466C147.001 165.134 146.801 164.678 146.792 164.199C146.782 163.719 146.963 163.256 147.296 162.91C147.628 162.565 148.084 162.365 148.563 162.356C149.042 162.346 149.505 162.528 149.851 162.86L156.135 168.899L171.886 153.005C172.224 152.665 172.682 152.472 173.162 152.47C173.641 152.468 174.102 152.656 174.442 152.994C174.783 153.331 174.975 153.79 174.977 154.269C174.98 154.749 174.791 155.209 174.454 155.55L157.449 172.708C157.282 172.878 157.082 173.013 156.862 173.105C156.641 173.197 156.405 173.245 156.166 173.245Z" fill="#46BCC6"/>
<path opacity="0.5" d="M345.672 51.9492H193.412C192.715 51.9492 192.151 52.5138 192.151 53.2103C192.151 53.9067 192.715 54.4713 193.412 54.4713H345.672C346.368 54.4713 346.933 53.9067 346.933 53.2103C346.933 52.5138 346.368 51.9492 345.672 51.9492Z" fill="#222D5B" fill-opacity="0.45"/>
<path opacity="0.5" d="M291.452 65.5044H193.412C192.715 65.5044 192.151 66.069 192.151 66.7654C192.151 67.4619 192.715 68.0265 193.412 68.0265H291.452C292.149 68.0265 292.714 67.4619 292.714 66.7654C292.714 66.069 292.149 65.5044 291.452 65.5044Z" fill="#222D5B" fill-opacity="0.45"/>
<path opacity="0.5" d="M345.672 103.384H193.412C192.715 103.384 192.151 103.949 192.151 104.645C192.151 105.342 192.715 105.906 193.412 105.906H345.672C346.368 105.906 346.933 105.342 346.933 104.645C346.933 103.949 346.368 103.384 345.672 103.384Z" fill="#222D5B" fill-opacity="0.45"/>
<path opacity="0.5" d="M291.452 116.939H193.412C192.715 116.939 192.151 117.504 192.151 118.2C192.151 118.897 192.715 119.462 193.412 119.462H291.452C292.149 119.462 292.714 118.897 292.714 118.2C292.714 117.504 292.149 116.939 291.452 116.939Z" fill="#222D5B" fill-opacity="0.45"/>
<path opacity="0.5" d="M345.672 154.82H193.412C192.715 154.82 192.151 155.384 192.151 156.081C192.151 156.777 192.715 157.342 193.412 157.342H345.672C346.368 157.342 346.933 156.777 346.933 156.081C346.933 155.384 346.368 154.82 345.672 154.82Z" fill="#222D5B" fill-opacity="0.45"/>
<path opacity="0.5" d="M291.452 168.374H193.412C192.715 168.374 192.151 168.939 192.151 169.635C192.151 170.332 192.715 170.896 193.412 170.896H291.452C292.149 170.896 292.714 170.332 292.714 169.635C292.714 168.939 292.149 168.374 291.452 168.374Z" fill="#222D5B" fill-opacity="0.45"/>
<path opacity="0.5" d="M345.672 205.548H193.412C192.715 205.548 192.151 206.112 192.151 206.809C192.151 207.505 192.715 208.07 193.412 208.07H345.672C346.368 208.07 346.933 207.505 346.933 206.809C346.933 206.112 346.368 205.548 345.672 205.548Z" fill="#222D5B" fill-opacity="0.45"/>
<path opacity="0.5" d="M291.452 219.103H193.412C192.715 219.103 192.151 219.667 192.151 220.364C192.151 221.06 192.715 221.625 193.412 221.625H291.452C292.149 221.625 292.714 221.06 292.714 220.364C292.714 219.667 292.149 219.103 291.452 219.103Z" fill="#222D5B" fill-opacity="0.45"/>
<path opacity="0.5" d="M345.672 256.276H193.412C192.715 256.276 192.151 256.84 192.151 257.537C192.151 258.233 192.715 258.798 193.412 258.798H345.672C346.368 258.798 346.933 258.233 346.933 257.537C346.933 256.84 346.368 256.276 345.672 256.276Z" fill="#222D5B" fill-opacity="0.45"/>
<path opacity="0.5" d="M291.452 269.831H193.412C192.715 269.831 192.151 270.395 192.151 271.092C192.151 271.788 192.715 272.353 193.412 272.353H291.452C292.149 272.353 292.714 271.788 292.714 271.092C292.714 270.395 292.149 269.831 291.452 269.831Z" fill="#222D5B" fill-opacity="0.45"/>
<path d="M154.862 69.2315C154.993 68.9078 155.227 68.636 155.528 68.4575C155.828 68.2789 156.179 68.2034 156.526 68.2425C156.526 68.2145 156.501 68.1467 156.55 68.1472L155.421 67.4333C155.083 67.2301 154.83 66.9115 154.709 66.5365C154.588 66.1614 154.607 65.7551 154.762 65.3928C154.927 65.0398 155.217 64.7606 155.576 64.6094C155.935 64.4582 156.337 64.4458 156.705 64.5746C156.701 64.5592 156.711 64.5438 156.712 64.5294L156.248 64.2362C155.93 64.0434 155.689 63.7469 155.565 63.3968C155.441 63.0468 155.442 62.6646 155.567 62.315C155.65 62.0975 155.781 61.9012 155.949 61.7403C156.118 61.5794 156.319 61.4578 156.54 61.3843C156.761 61.3108 156.996 61.2873 157.227 61.3154C157.458 61.3435 157.68 61.4226 157.877 61.5469L158.95 62.2246C158.953 62.2183 158.95 62.2115 158.953 62.2056C158.955 62.1998 158.968 62.1971 158.973 62.1903C158.721 61.9382 158.563 61.6082 158.523 61.2541C158.483 60.9001 158.565 60.5431 158.755 60.2416C159.195 59.4314 160.325 59.5254 161.019 59.9632L163.097 61.5125C163.418 61.7516 163.674 62.0662 163.844 62.4284C164.013 62.7905 164.09 63.189 164.069 63.5882C163.884 67.0438 163.185 76.0586 160.971 74.658L155.523 71.2178C155.207 71.0074 154.971 70.6979 154.851 70.3381C154.732 69.9784 154.735 69.589 154.862 69.2315Z" fill="#E98862"/>
<path d="M156.166 69.8593C155.699 69.8597 155.25 69.6787 154.913 69.3547L147.346 62.0803C147.172 61.9164 147.033 61.7198 146.936 61.5017C146.838 61.2836 146.785 61.0484 146.779 60.8097C146.774 60.571 146.815 60.3335 146.902 60.1109C146.988 59.8884 147.118 59.6851 147.283 59.513C147.449 59.3409 147.647 59.2032 147.866 59.108C148.085 59.0128 148.32 58.962 148.559 58.9584C148.798 58.9548 149.035 58.9986 149.257 59.0872C149.479 59.1758 149.681 59.3075 149.851 59.4746L156.135 65.5146L171.886 49.6207C172.053 49.4521 172.252 49.3181 172.471 49.2262C172.69 49.1344 172.924 49.0866 173.162 49.0855C173.399 49.0844 173.634 49.13 173.854 49.2199C174.074 49.3097 174.274 49.4419 174.442 49.609C174.611 49.776 174.745 49.9746 174.837 50.1935C174.928 50.4124 174.976 50.6472 174.977 50.8845C174.978 51.1219 174.933 51.3571 174.843 51.5768C174.753 51.7965 174.621 51.9963 174.454 52.1649L157.449 69.323C157.282 69.4931 157.082 69.6281 156.861 69.7201C156.641 69.8122 156.405 69.8595 156.166 69.8593Z" fill="#46BCC6"/>
<path d="M150.958 65.4478C150.996 65.1846 151.088 64.9319 151.226 64.7051C151.365 64.4783 151.549 64.2821 151.766 64.1286C151.983 63.9751 152.229 63.8674 152.489 63.8121C152.749 63.7569 153.018 63.7552 153.279 63.8072C153.78 63.9256 154.217 64.2296 154.503 64.658C154.788 65.0863 154.901 65.6071 154.818 66.1151L154.763 68.8898C154.752 69.4767 154.955 70.0475 155.336 70.4945C155.716 70.9415 156.247 71.2338 156.829 71.3161C157.398 71.3969 157.978 71.2706 158.462 70.9603C158.947 70.65 159.304 70.1761 159.469 69.6249L160.884 64.8884L159.345 62.59C159.883 61.7225 160.335 59.4792 161.268 60.1474C162.058 60.6381 163.85 61.8246 164.341 62.9487C164.35 62.9532 165.268 72.5984 164.769 73.4026L160.351 85.2206C158.231 88.6328 148.003 85.9923 148.003 85.9923L150.958 65.4478Z" fill="#E98862"/>
<path d="M156.135 65.5146L171.886 49.6207C172.053 49.4521 172.252 49.3181 172.471 49.2262C172.69 49.1344 172.924 49.0866 173.162 49.0855C173.399 49.0844 173.634 49.13 173.854 49.2199C174.074 49.3097 174.274 49.4419 174.442 49.609C174.611 49.776 174.745 49.9746 174.837 50.1935C174.929 50.4124 174.976 50.6472 174.977 50.8845C174.979 51.1219 174.933 51.3571 174.843 51.5768C174.753 51.7965 174.621 51.9963 174.454 52.1649L157.449 69.323" fill="#46BCC6"/>
<path d="M75.7453 147.661L139.492 142.296C144.186 142.42 148.272 138.517 149.994 134.138L166.695 81.7905L144.848 73.2021L130.105 118.043L74.0419 121.966L75.7453 147.661Z" fill="#EC6428"/>
<path d="M38.7317 394.128C38.7317 394.128 40.7717 404.701 50.6726 405.292C60.5734 405.883 58.4263 413.768 58.4263 413.768H20.5909V394.865L38.7317 394.128Z" fill="#EC6428"/>
<path d="M27.0619 201.229C27.0619 201.229 27.1808 198.051 27.1555 205.261C27.0619 232.158 26.5952 262.88 25.4548 280.859C23.6217 309.759 18.9214 400.876 18.9214 400.876L43.7836 400.668L67.8804 200.137L27.0619 201.229Z" fill="#16214B"/>
<path d="M55.1379 232.946C55.1379 232.946 56.1681 252.465 56.3579 257.047C56.7998 267.645 56.9534 278.617 56.9534 291.057L60.8734 258.444C60.8734 258.444 58.0057 248.224 55.1379 232.946Z" fill="#222D5B"/>
<path d="M82.993 394.128C82.993 394.128 85.033 404.701 94.9339 405.292C104.835 405.883 102.688 413.768 102.688 413.768H64.8522V394.865L82.993 394.128Z" fill="#EC6428"/>
<path d="M95.031 203.318C95.031 203.318 97.2332 295.244 96.9106 299.737L87.6649 400.178L63.2134 400.63L65.5964 296.103C65.5964 296.103 63.9156 267.27 56.9489 240.495C53.3844 226.754 51.2392 212.683 50.5469 198.504L95.031 203.318Z" fill="#16214B"/>
<path d="M26.7908 201.226L26.7095 201.231C26.7095 201.231 26.7687 199.662 26.7908 201.226Z" fill="#222D5B"/>
<path d="M98.5309 155.003C98.0185 161.027 95.524 195.897 95.031 203.317H27.089C26.7054 196.625 24.9817 167.363 23.5264 154.277C22.137 141.789 19.4112 135.537 21.4091 131.845C24.674 125.812 33.5958 122.325 39.6792 121.502C43.3941 120.999 75.0644 120.637 75.1403 120.637C77.628 120.637 92.1136 121.807 95.3157 124.273C101.109 128.735 99.4264 144.499 98.5309 155.003Z" fill="#EC6428"/>
<path d="M99.4693 145.842C99.527 145.842 99.5826 145.82 99.6246 145.78C99.6666 145.741 99.6918 145.686 99.6952 145.629L100.243 136.967C100.247 136.907 100.226 136.848 100.186 136.804C100.147 136.759 100.091 136.732 100.031 136.728C99.9713 136.726 99.913 136.746 99.8684 136.786C99.8238 136.826 99.7965 136.881 99.7923 136.941L99.2443 145.603C99.2408 145.662 99.2612 145.721 99.3011 145.766C99.3409 145.811 99.3968 145.838 99.4566 145.841L99.4693 145.842Z" fill="#222D5B"/>
<path d="M12.4002 202.923C10.4021 202.923 8.4337 202.439 6.66255 201.514C4.89139 200.59 3.36988 199.25 2.22747 197.611C1.08506 195.972 0.35556 194.081 0.101045 192.099C-0.153469 190.117 0.0745345 188.103 0.765655 186.228C1.46553 184.325 17.921 140.749 21.0526 132.675L44.2489 142.073C42.4868 146.613 36.1057 163.82 30.9784 177.682L39.4962 176.756L42.1773 201.419L13.7416 202.85C13.2961 202.899 12.8483 202.923 12.4002 202.923Z" fill="#EC6428"/>
<path d="M83.2347 119.814C83.1588 119.804 81.0746 127.646 64.8102 126.426C53.5507 125.582 50.8036 117.918 50.5469 117.918C51.761 117.66 53.7328 117.392 54.2718 117.105C56.0448 116.152 57.3365 114.993 57.9863 112.503C58.4946 110.557 58.7544 103.065 58.7544 99.3057L76.0805 103.199C75.8388 107.439 74.1485 117.27 80.0729 119.01C81.0583 119.298 82.1201 119.562 83.2347 119.814Z" fill="#E98862"/>
<path d="M75.4805 111.535C68.6502 112.074 59.8758 109.19 58.209 100.077L56.7053 91.8541C55.0385 82.7412 58.4738 74.4782 67.0544 72.909C75.6346 71.3398 83.3992 77.5547 85.0655 86.6676L85.7315 90.3079C86.3709 93.8051 87.6672 110.574 75.4805 111.535Z" fill="#E98862"/>
<path d="M81.8138 103.169C80.588 97.0084 80.0254 92.8981 80.091 88.5624C81.8178 85.5351 81.3638 82.0561 80.9711 80.5542C82.1605 81.3095 83.5588 81.6679 84.9648 81.578C84.9648 81.578 82.1088 70.1161 72.4018 67.032C70.6166 66.3375 66.059 65.4601 60.0077 66.2901C54.861 66.9958 42.1737 70.844 40.361 85.1276V85.1357C40.3013 85.6097 39.0832 98.77 36.656 105.084C33.3916 113.572 28.8078 116.21 28.9239 126.004C29.0735 138.601 52.2327 140.278 66.1996 139.336C80.1664 138.393 87.9658 133.801 88.0679 124.722C88.1791 114.549 84.2672 115.494 81.8138 103.169Z" fill="#222D5B"/>
<path d="M25.6425 154.528L25.191 154.544L26.8604 203.325L27.3119 203.31L25.6425 154.528Z" fill="#222D5B"/>
<path d="M431.713 414.085H6.80746C6.72358 414.085 6.64313 414.052 6.58382 413.993C6.5245 413.933 6.49118 413.853 6.49118 413.769C6.49118 413.685 6.5245 413.605 6.58382 413.545C6.64313 413.486 6.72358 413.453 6.80746 413.453H431.713C431.797 413.453 431.878 413.486 431.937 413.545C431.996 413.605 432.03 413.685 432.03 413.769C432.03 413.853 431.996 413.933 431.937 413.993C431.878 414.052 431.797 414.085 431.713 414.085Z" fill="#222D5B" fill-opacity="0.24"/>
</svg>
